<?xml version="1.0" encoding="UTF-8" standalone="no"?>
<!-- Created with Inkscape (http://www.inkscape.org/) -->

<svg
   version="1.1"
   id="svg1"
   width="1440"
   height="1440"
   viewBox="0 0 1440 1440"
   sodipodi:docname="favicon.svg"
   inkscape:version="1.4.2 (ebf0e940d0, 2025-05-08)"
   xmlns:inkscape="http://www.inkscape.org/namespaces/inkscape"
   xmlns:sodipodi="http://sodipodi.sourceforge.net/DTD/sodipodi-0.dtd"
   xmlns:xlink="http://www.w3.org/1999/xlink"
   xmlns="http://www.w3.org/2000/svg"
   xmlns:svg="http://www.w3.org/2000/svg">
  <defs
     id="defs1">
    <linearGradient
       id="linearGradient1"
       inkscape:collect="always">
      <stop
         style="stop-color:#a300b3;stop-opacity:1;"
         offset="0"
         id="stop1" />
      <stop
         style="stop-color:#ff5b0f;stop-opacity:1;"
         offset="1"
         id="stop2" />
    </linearGradient>
    <linearGradient
       inkscape:collect="always"
       xlink:href="#linearGradient1"
       id="linearGradient2"
       x1="0"
       y1="0"
       x2="1440"
       y2="1440"
       gradientUnits="userSpaceOnUse" />
    <filter
       inkscape:collect="always"
       style="color-interpolation-filters:sRGB"
       id="filter3"
       x="-0.056995463"
       y="-0.055626997"
       width="1.1139909"
       height="1.111254">
      <feGaussianBlur
         inkscape:collect="always"
         stdDeviation="26.598353"
         id="feGaussianBlur3" />
    </filter>
  </defs>
  <sodipodi:namedview
     id="namedview1"
     pagecolor="#ffffff"
     bordercolor="#000000"
     borderopacity="0.25"
     inkscape:showpageshadow="2"
     inkscape:pageopacity="0.0"
     inkscape:pagecheckerboard="0"
     inkscape:deskcolor="#d1d1d1"
     showgrid="false"
     showguides="false"
     inkscape:zoom="0.38105199"
     inkscape:cx="856.83847"
     inkscape:cy="813.53729"
     inkscape:window-width="2099"
     inkscape:window-height="1074"
     inkscape:window-x="0"
     inkscape:window-y="0"
     inkscape:window-maximized="0"
     inkscape:current-layer="svg1" />
  <circle
     style="display:inline;opacity:0.863324;fill:url(#linearGradient2);fill-opacity:1;stroke-width:1.00157"
     id="path1"
     cx="720"
     cy="720"
     r="720" />
  <path
     style="opacity:0.491857;fill:#000000;fill-opacity:1;stroke-width:0.860758;filter:url(#filter3)"
     d="m 698.40433,1301.0207 c -45.93994,-12.0289 -80.95546,-47.3165 -92.73266,-93.4528 -2.17743,-8.53 -2.51178,-12.8096 -2.4314,-31.122 0.0792,-18.0581 0.46667,-22.5945 2.59164,-30.3467 1.37414,-5.013 2.10689,-9.4639 1.62832,-9.8906 -0.47856,-0.4268 -47.64669,-24.3278 -104.81806,-53.1132 l -103.94794,-52.3373 -7.10276,7.9332 c -8.13933,9.091 -23.72995,21.2029 -34.62124,26.8962 -10.20625,5.3354 -25.48304,10.5492 -37.55788,12.8183 -14.71929,2.7661 -39.47928,1.7826 -54.49255,-2.1644 -48.39392,-12.7228 -86.05618,-54.0443 -93.81918,-102.93432 -1.64802,-10.37899 -1.42491,-33.31637 0.42421,-43.61176 7.88023,-43.87497 39.13507,-81.04829 81.57092,-97.01739 27.62885,-10.39706 63.41316,-9.92933 91.21557,1.19226 5.34644,2.1387 9.80487,3.78697 9.90762,3.66282 1.26513,-1.52868 66.11253,-103.37791 66.55521,-104.53151 0.33495,-0.87286 -5.68308,-11.3307 -13.37337,-23.23966 -7.69031,-11.90897 -23.55121,-36.5265 -35.24647,-54.70564 -16.73772,-26.01717 -21.65526,-32.88464 -23.10172,-32.26218 -73.03793,31.43014 -156.41026,-9.58882 -176.05276,-86.61749 -2.16805,-8.50206 -2.5122,-12.86936 -2.45244,-31.12193 0.0585,-17.87018 0.44935,-22.60054 2.46835,-29.87497 4.31261,-15.53825 9.44762,-27.06466 17.44172,-39.15087 36.19278,-54.71961 105.23215,-73.52272 163.64357,-44.5689 6.31222,3.12889 14.83373,8.22748 18.93669,11.33019 7.37588,5.57776 23.08143,21.10465 26.67154,26.36815 l 1.85492,2.7195 61.19657,-31.29259 c 33.65812,-17.21094 63.77885,-32.69313 66.93496,-34.40486 3.15612,-1.71175 22.13583,-11.48847 42.17715,-21.72604 20.04132,-10.23758 36.43876,-19.1336 36.43876,-19.76894 0,-0.63533 -1.14506,-5.37283 -2.5446,-10.52778 -2.18903,-8.0629 -2.54988,-12.33963 -2.58227,-30.60468 -0.035,-19.73825 0.18505,-22.02903 3.12801,-32.5601 13.48001,-48.23699 51.81986,-83.98779 99.8388,-93.09683 11.82554,-2.24327 35.80226,-2.24327 47.6278,0 47.76563,9.06098 86.3279,44.84921 99.66648,92.49681 2.46901,8.81969 3.11838,14.01583 3.57038,28.5694 0.55854,17.98443 0.41698,19.22099 -5.07158,44.30218 -0.54303,2.4815 9.58702,7.83716 175.63726,92.85773 l 30.7814,15.76061 1.8566,-2.72197 c 3.5918,-5.26575 19.296,-20.79172 26.6733,-26.37059 23.8417,-18.02955 58.4528,-27.51081 88.3086,-24.19101 31.8337,3.53976 57.6769,16.24094 79.3434,38.99498 17.8886,18.78649 28.2772,38.47088 33.4387,63.35934 2.9826,14.38134 2.3856,41.57743 -1.2251,55.81756 -16.2444,64.06519 -80.229,106.01545 -144.8617,94.97575 -9.0564,-1.5469 -23.4975,-5.71438 -31.0072,-8.94822 -1.4312,-0.61631 -6.426,6.35962 -23.0998,32.26219 -11.7005,18.1767 -27.1041,42.07538 -34.2302,53.1082 -7.126,11.03281 -12.9563,20.64046 -12.9563,21.35032 0,0.70987 15.3718,25.08353 34.1597,54.1637 l 34.1597,52.87301 5.3396,-2.29757 c 2.9366,-1.26365 9.9875,-3.60484 15.6685,-5.20263 14.2939,-4.02018 41.2647,-5.00385 56.3161,-2.05395 53.0705,10.4013 94.1644,52.53716 102.6648,105.26803 2.2627,14.0363 0.8855,40.13629 -2.8251,53.53925 -6.0821,21.9692 -17.0244,40.6817 -33.3147,56.9721 -16.5335,16.5335 -35.7757,27.6803 -57.7611,33.4603 -15.1122,3.973 -39.7457,4.9303 -54.7509,2.1276 -26.286,-4.9096 -48.2973,-16.3537 -67.0538,-34.8621 -4.9044,-4.8395 -10.2263,-10.5485 -11.8266,-12.6866 l -2.9094,-3.8875 -21.6535,11.2172 c -32.047,16.6013 -77.28435,40.097 -91.66188,47.6081 -11.41441,5.963 -26.44339,13.7624 -77.46824,40.2027 -11.55402,5.987 -16.52053,9.1451 -16.24616,10.3306 0.21734,0.939 1.46654,5.5807 2.776,10.3149 1.99121,7.1989 2.39609,12.0822 2.47403,29.8396 0.0827,18.8552 -0.21149,22.3884 -2.62839,31.5612 -5.86776,22.2696 -17.48819,43.0156 -32.71633,58.4085 -17.53149,17.7212 -35.84457,28.2354 -60.20823,34.5676 -9.79352,2.5455 -13.22912,2.8489 -31.69423,2.7985 -17.9509,-0.05 -22.08617,-0.4167 -31.03914,-2.761 z M 627.22677,1101.145 c 1.08017,-1.6487 5.80698,-7.0199 10.50402,-11.9363 l 8.54007,-8.9388 -8.83197,-13.5996 c -4.85759,-7.4798 -20.30054,-31.4174 -34.31766,-53.1945 -14.01713,-21.77724 -32.32594,-50.18221 -40.68626,-63.12227 -8.36032,-12.94007 -23.72383,-36.82071 -34.14112,-53.06809 -10.41729,-16.24738 -19.26981,-29.36206 -19.67227,-29.14374 -0.40246,0.21833 -20.48614,10.84931 -44.63041,23.6244 -24.14427,12.77509 -43.89867,23.4846 -43.89867,23.7989 0,0.31431 1.08084,5.81715 2.40188,12.22853 3.42823,16.63817 2.67235,41.11021 -1.77803,57.56417 -1.7073,6.31208 -3.19167,12.1716 -3.29861,13.0208 -0.12178,0.96712 38.40065,21.0073 103.09654,53.6332 56.81005,28.649 103.61894,52.0983 104.01976,52.1098 0.40083,0.011 1.61254,-1.328 2.69273,-2.9765 z m 216.75596,-3.1992 c 5.14694,-2.7769 43.96056,-22.9832 86.25248,-44.9031 42.29195,-21.9198 84.67199,-43.9141 94.17809,-48.8763 l 17.2836,-9.02187 -2.8742,-10.63175 c -2.5806,-9.54546 -2.8744,-12.80162 -2.8744,-31.8639 0,-18.9614 0.3018,-22.34686 2.822,-31.65643 l 2.8221,-10.42441 -43.33872,-22.2844 c -23.8363,-12.25643 -43.98532,-22.41784 -44.77565,-22.58091 -0.79031,-0.16305 -5.80609,6.55086 -11.14616,14.91981 -10.24501,16.056 -40.55785,63.15783 -57.43222,89.24155 -5.51285,8.52147 -23.77468,36.85201 -40.58185,62.95681 l -30.55851,47.4635 9.74858,10.3559 c 5.36172,5.6957 9.74859,10.8054 9.74859,11.3551 0,1.5986 0.85655,1.2752 10.72627,-4.0496 z m -158.75325,-40.3837 c 13.15838,-5.3467 26.45694,-7.6765 44.16214,-7.7366 18.15762,-0.062 30.05472,1.9335 44.45688,7.4556 4.88337,1.8723 9.31078,3.1372 9.83866,2.811 0.52791,-0.3262 8.83745,-12.8851 18.46569,-27.9086 18.76839,-29.2854 36.13539,-56.27675 53.39002,-82.97765 46.53971,-72.01864 63.91334,-99.11513 64.12148,-100.00602 0.13297,-0.56914 -9.57089,-6.08256 -21.56411,-12.25203 -11.99323,-6.16948 -31.20824,-16.07076 -42.70002,-22.00285 l -20.89415,-10.78563 -2.58358,3.37569 c -6.97039,9.10748 -20.9622,22.10057 -31.03856,28.82305 -52.64467,35.12213 -120.41703,27.25111 -164.10343,-19.05884 l -10.78128,-11.42873 -41.83953,22.2181 c -24.36292,12.93748 -41.7921,22.85888 -41.726,23.75214 0.0624,0.84372 10.94445,18.31882 24.18224,38.83356 13.23779,20.51473 34.05016,52.79317 46.24971,71.72984 12.19956,18.93667 24.3536,37.78717 27.00896,41.89017 4.15643,6.4223 9.83076,15.2315 32.34278,50.2109 2.13278,3.3139 4.28931,6.0253 4.79231,6.0253 0.50299,0 4.20191,-1.3357 8.21979,-2.9684 z M 425.91266,871.36378 c 11.63264,-6.20222 27.86417,-14.78822 36.07006,-19.07999 8.20591,-4.29177 17.81261,-9.36506 21.34824,-11.274 l 6.42841,-3.47079 -23.06974,-35.87319 c -15.06856,-23.43144 -23.46778,-35.49437 -24.21742,-34.78097 -0.63122,0.60071 -14.10877,21.33961 -29.95012,46.08642 l -28.80244,44.99422 6.53247,7.02557 c 3.59286,3.86406 8.24912,9.41596 10.34723,12.33753 2.09813,2.92158 3.89313,5.31197 3.98892,5.31197 0.0958,0 9.69175,-5.07455 21.32439,-11.27677 z m 635.10384,3.73823 c 1.0622,-1.62131 5.4622,-6.66486 9.7777,-11.20789 l 7.8462,-8.26005 -29.9048,-46.24722 c -24.029,-37.16031 -30.1801,-45.95134 -31.3058,-44.7414 -1.5554,1.67192 -44.23289,68.07071 -44.5382,69.29388 -0.22828,0.91469 0.86273,1.49982 47.3917,25.4167 19.9081,10.23314 36.7826,18.62553 37.499,18.64976 0.7165,0.0242 2.1718,-1.28248 3.2342,-2.90378 z M 582.26533,788.53097 c 23.75661,-12.511 27.15891,-14.63955 26.59955,-16.64132 -0.35276,-1.26244 -1.75537,-6.16877 -3.1169,-10.90294 -2.14505,-7.4585 -2.47653,-11.51859 -2.48302,-30.41346 -0.007,-19.81301 0.25733,-22.75863 2.89038,-32.23089 l 2.89788,-10.42501 -9.83913,-5.2139 c -41.85207,-22.17799 -77.36552,-39.98807 -78.11929,-39.17699 -3.5498,3.8197 -56.25987,88.21632 -55.81679,89.37095 0.30873,0.80456 9.52296,15.32972 20.47606,32.27815 10.95309,16.94842 23.45519,36.35591 27.78244,43.12775 l 7.86773,12.31241 16.81007,-8.86939 c 9.24554,-4.87816 29.0685,-15.32507 44.05102,-23.21536 z M 968.7295,773.56133 c 15.43906,-24.01388 28.00113,-43.93571 27.91574,-44.27075 -0.11203,-0.43962 -54.16033,-84.55921 -56.2078,-87.48064 -0.24085,-0.34365 -57.01454,28.78688 -80.86647,41.49253 l -8.68963,4.62888 2.80993,10.418 c 5.30627,19.67329 4.64226,52.11968 -1.41814,69.29666 l -1.59899,4.53205 21.41769,10.97932 c 11.77973,6.03861 31.48857,16.16235 43.79741,22.49716 12.30884,6.33482 22.91737,11.52922 23.57452,11.54312 0.65714,0.0138 13.82674,-19.62246 29.26574,-43.63633 z M 448.958,689.52896 c 30.88519,-48.05587 40.1407,-63.13167 39.27885,-63.9792 -1.45507,-1.43088 -84.9794,-44.74844 -86.28334,-44.74844 -0.60226,0 -2.90009,2.20284 -5.10628,4.89521 -2.20619,2.69235 -6.68891,7.58697 -9.9616,10.87692 l -5.95036,5.98172 30.73267,47.65464 c 16.90298,26.21004 31.00701,47.64796 31.34231,47.63981 0.3353,-0.007 3.01179,-3.75245 5.94775,-8.32066 z m 600.0174,-40.4374 30.0002,-46.47753 -5.6189,-5.61894 c -3.0905,-3.09043 -7.5687,-7.99828 -9.9516,-10.90636 -2.383,-2.90808 -4.816,-5.28741 -5.4067,-5.28741 -0.5907,0 -20.1373,9.88861 -43.4369,21.97468 -26.51738,13.7552 -42.0816,22.44814 -41.61103,23.24047 6.24902,10.52005 44.95903,69.55262 45.60853,69.55262 0.2289,0 13.9162,-20.91489 30.4164,-46.47753 z m -415.7715,-2.14173 c 15.00227,-17.97719 40.8187,-34.0304 65.20043,-40.54304 10.36393,-2.76832 13.42425,-3.06558 31.56114,-3.06558 18.13686,0 21.19719,0.29726 31.56112,3.06558 24.38173,6.51264 50.19816,22.56585 65.20043,40.54304 3.87867,4.6478 7.43252,8.45054 7.89747,8.45054 2.50469,0 85.60466,-44.25251 85.02723,-45.27882 -0.372,-0.66117 -31.10845,-48.29247 -68.30325,-105.84733 l -67.6269,-104.6452 -5.33584,2.2872 c -12.42116,5.32433 -26.58477,8.14389 -43.82956,8.72516 -18.49497,0.6234 -30.09106,-0.94677 -44.95999,-6.08782 -4.62386,-1.59874 -9.47972,-3.18186 -10.7908,-3.51806 -2.08004,-0.53338 -6.89805,6.45703 -37.81125,54.86003 -19.48511,30.5092 -39.1024,61.15229 -43.59399,68.09575 -19.90039,30.76359 -54.48778,85.26642 -55.0658,86.77272 -0.46826,1.22025 10.1421,7.27637 40.418,23.0696 22.57912,11.77826 41.5809,21.44915 42.22619,21.49089 0.64528,0.0418 4.34671,-3.72686 8.22537,-8.37466 z M 543.47682,541.78029 c 17.54654,-27.45819 40.17587,-62.83536 50.28739,-78.61593 10.11154,-15.78056 26.06951,-40.75689 35.46219,-55.50294 l 17.07757,-26.81099 -6.6838,-7.04549 c -3.6761,-3.87503 -8.48008,-9.17119 -10.67551,-11.76924 l -3.9917,-4.72374 -66.56531,34.32489 c -36.61092,18.87868 -83.09186,42.80774 -103.29099,53.1757 -23.08669,11.85011 -36.57893,19.39748 -36.33052,20.32284 0.21734,0.8096 1.47393,5.34541 2.79241,10.07958 2.04507,7.34308 2.39725,11.81103 2.39725,30.41347 0,18.64349 -0.34914,23.05418 -2.40744,30.41345 -1.32407,4.73417 -2.71311,9.38227 -3.08672,10.3291 -0.51935,1.31614 10.06159,7.29785 44.93371,25.40237 40.13039,20.83441 45.76722,23.45546 46.89585,21.80587 0.70556,-1.03123 15.63908,-24.34076 33.18562,-51.79894 z m 474.85538,18.6421 c 18.0621,-9.34623 23.6615,-12.74597 23.1424,-14.05115 -0.3765,-0.94697 -1.764,-5.59518 -3.0831,-10.32935 -2.0214,-7.25434 -2.4084,-11.94559 -2.4615,-29.83962 -0.063,-21.57298 -0.1136,-21.18554 5.2397,-41.04236 0.2386,-0.88499 -9.6444,-6.60662 -25.4325,-14.72388 -14.2025,-7.30203 -55.51891,-28.53345 -91.81422,-47.18091 -36.2953,-18.64748 -71.23654,-36.63533 -77.64722,-39.97301 l -11.65574,-6.06853 -3.78742,4.77293 c -2.08308,2.62511 -6.7086,7.87166 -10.27893,11.65899 l -6.4915,6.88607 10.78378,16.64133 c 5.9311,9.15272 18.45818,28.51979 27.83796,43.03792 19.37416,29.9875 70.27424,108.68617 77.56885,119.9323 2.6613,4.10295 8.76796,13.53332 13.57034,20.9564 l 8.73159,13.49649 20.97525,-10.92213 c 11.53639,-6.00716 31.69746,-16.47033 44.80226,-23.25149 z"
     id="path2"
     transform="matrix(0.90533708,0,0,0.90533708,69.10393,69.103931)" />
  <path
     style="fill:#ffffff;fill-opacity:1;stroke-width:0.779276"
     d="m 692.34189,1237.9128 c -41.59113,-10.8902 -73.29198,-42.8373 -83.95431,-84.6062 -1.97131,-7.7226 -2.27401,-11.5971 -2.20124,-28.1759 0.0717,-16.3487 0.4225,-20.4557 2.34631,-27.474 1.24406,-4.5385 1.90745,-8.5681 1.47418,-8.9544 -0.43326,-0.3864 -43.13632,-22.0248 -94.89568,-48.0853 l -94.10792,-47.38291 -6.43039,7.18221 c -7.36884,8.2304 -21.48361,19.1958 -31.3439,24.3501 -9.24009,4.8304 -23.07074,9.5506 -34.00254,11.6049 -13.32592,2.5043 -35.74205,1.6139 -49.33412,-1.9595 -43.81281,-11.5184 -77.90985,-48.9283 -84.93799,-93.19025 -1.49201,-9.39649 -1.29002,-30.16255 0.38406,-39.48335 7.13426,-39.72163 35.43043,-73.37602 73.84918,-87.83344 25.01342,-9.41284 57.41028,-8.98939 82.58083,1.0794 4.84033,1.93625 8.87672,3.42849 8.96974,3.31609 1.14537,-1.38397 59.85412,-93.59186 60.2549,-94.63625 0.30324,-0.79024 -5.1451,-10.25811 -12.10741,-21.03973 -6.96232,-10.78163 -21.32178,-33.06879 -31.90994,-49.52704 -15.15327,-23.55431 -19.60531,-29.77169 -20.91484,-29.20815 -66.12395,28.45487 -141.60401,-8.68112 -159.38709,-78.41803 -1.96282,-7.69723 -2.27439,-11.65111 -2.22029,-28.17583 0.053,-16.17854 0.40682,-20.46111 2.23469,-27.04692 3.90437,-14.06736 8.55328,-24.50264 15.79064,-35.44474 32.76667,-49.53969 95.27057,-66.56284 148.15259,-40.34987 5.71469,2.8327 13.42953,7.44864 17.14409,10.25764 6.67766,5.04975 20.89647,19.10682 24.14673,23.87206 l 1.67933,2.46207 55.40352,-28.33035 c 30.47195,-15.5817 57.74136,-29.5983 60.59871,-31.14799 2.85735,-1.54971 20.04038,-10.40094 38.18453,-19.66939 18.14415,-9.26846 32.98936,-17.32236 32.98936,-17.89756 0,-0.57518 -1.03666,-4.86422 -2.30372,-9.53119 -1.98181,-7.29964 -2.3085,-11.17152 -2.33782,-27.70755 -0.0317,-17.86977 0.16753,-19.94369 2.8319,-29.47786 12.20395,-43.67074 46.91444,-76.03726 90.38777,-84.28402 10.7061,-2.03091 32.41311,-2.03091 43.11921,0 43.244,8.20325 78.15585,40.60366 90.23176,83.7408 2.23529,7.98479 2.82319,12.68905 3.2324,25.86493 0.50567,16.28197 0.37751,17.40148 -4.59149,40.10841 -0.49163,2.24659 8.67948,7.09527 159.01092,84.06755 l 27.86755,14.26866 1.6808,-2.4643 c 3.2518,-4.76728 17.4694,-18.82352 24.1484,-23.87427 21.5847,-16.32282 52.9195,-24.90656 79.949,-21.90102 28.8203,3.20467 52.2171,14.70352 71.8325,35.3036 16.1953,17.00811 25.6004,34.82911 30.2733,57.36156 2.7003,13.01996 2.1598,37.64159 -1.1091,50.53371 -14.7066,58.00059 -72.6343,95.97971 -131.1487,85.98506 -8.1991,-1.40046 -21.2731,-5.17344 -28.0719,-8.10115 -1.2957,-0.55797 -5.8177,5.7576 -20.9131,29.20816 -10.5929,16.45604 -24.5384,38.0924 -30.9899,48.08082 -6.4514,9.98841 -11.7298,18.68657 -11.7298,19.32923 0,0.64268 13.9166,22.70905 30.926,49.03641 l 30.9261,47.8679 4.8341,-2.08008 c 2.6586,-1.14403 9.0421,-3.26359 14.1853,-4.71013 12.9408,-3.63962 37.3584,-4.53017 50.985,-1.85952 48.0467,9.41668 85.2506,47.56384 92.9463,95.30305 2.0485,12.70758 0.8017,36.33687 -2.5577,48.47107 -5.5063,19.8895 -15.4128,36.83065 -30.161,51.579 -14.9684,14.9683 -32.3891,25.06 -52.2933,30.2928 -13.6816,3.5969 -35.9832,4.4636 -49.568,1.9262 -23.7977,-4.4448 -43.7253,-14.8056 -60.7063,-31.562 -4.4401,-4.3813 -9.2582,-9.5499 -10.7071,-11.4856 l -2.6339,-3.5195 -19.60376,10.15535 c -29.01331,15.02975 -69.96839,36.30125 -82.9849,43.10135 -10.33389,5.3986 -23.94018,12.4596 -70.13487,36.397 -10.46028,5.4203 -14.95665,8.2794 -14.70825,9.3527 0.19677,0.8501 1.32772,5.0524 2.51322,9.3385 1.80271,6.5174 2.16927,10.9384 2.23983,27.0149 0.0749,17.0703 -0.19147,20.269 -2.37958,28.5735 -5.3123,20.1615 -15.83271,38.9436 -29.61931,52.8794 -15.8719,16.0436 -32.45141,25.5625 -54.50874,31.2953 -8.86644,2.3045 -11.97681,2.5792 -28.69396,2.5336 -16.25162,-0.045 -19.99543,-0.3773 -28.10089,-2.4997 z M 627.90221,1056.958 c 0.97792,-1.4927 5.25727,-6.3554 9.50968,-10.8064 l 7.73164,-8.0926 -7.99591,-12.3123 c -4.39776,-6.7717 -18.37883,-28.4433 -31.06905,-48.15892 -12.69023,-19.71574 -29.26587,-45.43182 -36.83478,-57.14693 -7.56891,-11.71513 -21.47806,-33.33516 -30.90922,-48.04451 -9.43116,-14.70936 -17.44567,-26.58256 -17.81004,-26.38491 -0.36436,0.19766 -18.54686,9.82228 -40.40556,21.38805 -21.8587,11.56576 -39.74309,21.26147 -39.74309,21.54602 0,0.28456 0.97852,5.26648 2.17451,11.07094 3.1037,15.06316 2.41937,37.2186 -1.60972,52.11498 -1.54568,5.71456 -2.88954,11.0194 -2.98635,11.78821 -0.11026,0.87557 34.76553,19.01869 93.33712,48.55617 51.43224,25.937 93.81006,47.1665 94.17294,47.1769 0.36289,0.01 1.45989,-1.2023 2.43783,-2.6947 z m 196.23721,-2.8964 c 4.65971,-2.514 39.79912,-20.8075 78.08757,-40.6524 38.28847,-19.84485 76.65669,-39.75707 85.26291,-44.24952 l 15.6475,-8.16788 -2.6021,-9.62532 c -2.33635,-8.64186 -2.60233,-11.58978 -2.60233,-28.84757 0,-17.16645 0.27323,-20.23144 2.55483,-28.65974 l 2.555,-9.4376 -39.23617,-20.17489 c -21.57989,-11.09621 -39.82154,-20.29571 -40.53706,-20.44334 -0.71549,-0.14762 -5.25647,5.93074 -10.09103,13.50746 -9.27519,14.53609 -36.71852,57.17912 -51.99552,80.79368 -4.99098,7.7148 -21.5241,33.36352 -36.74025,56.99714 l -27.66575,42.97048 8.82575,9.3756 c 4.85416,5.1565 8.82576,9.7825 8.82576,10.2802 0,1.4472 0.77546,1.1544 9.71089,-3.6663 z m -143.72521,-36.5609 c 11.91277,-4.8405 23.95245,-6.9498 39.98163,-7.0042 16.43876,-0.056 27.20965,1.7505 40.24846,6.7498 4.42109,1.6951 8.42939,2.8403 8.9073,2.5449 0.47794,-0.2953 8.00087,-11.6653 16.71768,-25.26665 16.99172,-26.51315 32.7147,-50.94942 48.33596,-75.12274 42.13413,-65.20114 57.86312,-89.7326 58.05155,-90.53916 0.12039,-0.51526 -8.66488,-5.50676 -19.52278,-11.09221 -10.85792,-5.58546 -28.25398,-14.54946 -38.65792,-19.92 l -18.91624,-9.76463 -2.33901,3.05614 c -6.31056,8.24534 -18.97786,20.00846 -28.10036,26.09457 -47.66118,31.79737 -109.01801,24.67144 -148.56892,-17.25467 l -9.7607,-10.34686 -37.87887,20.11487 c -22.05666,11.71278 -37.83594,20.695 -37.7761,21.5037 0.0565,0.76385 9.90842,16.5847 21.89308,35.15746 11.98466,18.57275 30.82687,47.79561 41.87158,64.93968 11.04471,17.14407 22.04821,34.21011 24.45221,37.9247 3.76297,5.81437 8.90015,13.78967 29.28112,45.4578 1.93088,3.0002 3.88327,5.4549 4.33865,5.4549 0.45538,0 3.80415,-1.2092 7.44168,-2.6874 z M 445.64508,848.9285 c 10.53146,-5.6151 25.22647,-13.38833 32.65557,-17.27382 7.42911,-3.8855 16.12641,-8.47854 19.32735,-10.20677 l 5.81988,-3.14224 -20.88589,-32.47733 c -13.64213,-21.21335 -21.24626,-32.13437 -21.92493,-31.4885 -0.57147,0.54385 -12.7732,19.31954 -27.11496,41.72375 l -26.07591,40.73493 5.91408,6.36051 c 3.25275,3.49828 7.46824,8.52462 9.36773,11.16962 1.89952,2.64502 3.5246,4.80913 3.61132,4.80913 0.0867,0 8.7743,-4.59418 19.30576,-10.20928 z m 574.98302,3.38436 c 0.9617,-1.46784 4.9452,-6.03395 8.8522,-10.14692 l 7.1034,-7.47813 -27.0739,-41.86932 c -21.75436,-33.64261 -27.32318,-41.60146 -28.34232,-40.50605 -1.40816,1.51365 -40.04567,61.62694 -40.32208,62.73432 -0.20667,0.8281 0.78106,1.35784 42.90546,23.01068 18.02354,9.26444 33.30064,16.86238 33.94924,16.88432 0.6487,0.0219 1.9662,-1.16108 2.928,-2.6289 z M 587.19695,773.93688 c 21.50774,-11.32667 24.58797,-13.25372 24.08156,-15.066 -0.31937,-1.14293 -1.5892,-5.58482 -2.82184,-9.87084 -1.942,-6.75245 -2.2421,-10.4282 -2.24797,-27.53443 -0.006,-17.93745 0.23297,-20.60423 2.61676,-29.17982 l 2.62356,-9.43815 -8.90773,-4.72033 c -37.89023,-20.07856 -70.04187,-36.20269 -70.72429,-35.46838 -3.21376,3.45811 -50.93414,79.8655 -50.53301,80.91083 0.27951,0.7284 8.62149,13.87856 18.53774,29.22261 9.91624,15.34403 21.23485,32.91435 25.15247,39.04515 l 7.12295,11.14688 15.21878,-8.02979 c 8.37033,-4.41638 26.31679,-13.87435 39.88102,-21.01773 z m 349.88034,-13.55257 c 13.97756,-21.74065 25.35047,-39.77662 25.27316,-40.07995 -0.10143,-0.398 -49.03336,-76.55459 -50.88701,-79.19946 -0.21805,-0.31112 -51.61737,26.06183 -73.21141,37.56472 l -7.86704,4.1907 2.54393,9.4318 c 4.80396,17.81096 4.20281,47.18588 -1.2839,62.73684 l -1.44762,4.10303 19.39023,9.93998 c 10.66462,5.46698 28.50777,14.63238 39.65142,20.36752 11.14365,5.73514 20.74794,10.43783 21.34288,10.45041 0.59494,0.0125 12.51786,-17.76494 26.49536,-39.50559 z M 466.50888,684.30669 c 27.96151,-43.50676 36.34087,-57.15544 35.5606,-57.92274 -1.31733,-1.29543 -76.935,-40.51242 -78.1155,-40.51242 -0.54525,0 -2.62556,1.99431 -4.62291,4.43182 -1.99734,2.43748 -6.05572,6.86876 -9.0186,9.84727 l -5.38709,5.41548 27.82343,43.14351 c 15.30289,23.72892 28.07179,43.13746 28.37535,43.13009 0.30356,-0.006 2.72669,-3.39724 5.38472,-7.53301 z m 543.21802,-36.60947 27.1603,-42.07783 -5.087,-5.08704 c -2.798,-2.79788 -6.8522,-7.24114 -9.0096,-9.87393 -2.1574,-2.63279 -4.3601,-4.78689 -4.8949,-4.78689 -0.5347,0 -18.23101,8.95253 -39.325,19.89449 -24.00716,12.4531 -38.09803,20.32314 -37.67201,21.04046 5.65747,9.52419 40.70308,62.96857 41.2911,62.96857 0.20723,0 12.59885,-18.93503 27.53711,-42.07783 z m -376.41337,-1.93899 c 13.58211,-16.27542 36.95468,-30.80898 59.02836,-36.70512 9.38285,-2.50626 12.15348,-2.77538 28.57347,-2.77538 16.41998,0 19.19061,0.26912 28.57346,2.77538 22.07368,5.89614 45.44625,20.4297 59.02836,36.70512 3.51151,4.20782 6.72894,7.65059 7.14988,7.65059 2.26758,0 77.50107,-40.06344 76.9783,-40.9926 -0.33679,-0.59858 -28.16363,-43.72096 -61.83746,-95.82751 l -61.22514,-94.73918 -4.83074,2.07069 c -11.24534,4.82031 -24.06818,7.37296 -39.68052,7.89921 -16.74419,0.56438 -27.24256,-0.85715 -40.70395,-5.51153 -4.18615,-1.4474 -8.58234,-2.88066 -9.76931,-3.18503 -1.88314,-0.48289 -6.24506,5.84579 -34.23193,49.66682 -17.64059,27.62111 -35.40085,55.36343 -39.46725,61.6496 -18.01656,27.85142 -49.32981,77.19486 -49.85311,78.55857 -0.42394,1.10473 9.18202,6.58756 36.59191,20.88576 20.44171,10.6633 37.64473,19.41871 38.22894,19.4565 0.58419,0.0378 3.93523,-3.37407 7.44673,-7.58189 z m -81.23325,-95.21389 c 15.88553,-24.85891 36.3727,-56.88718 45.52703,-71.17391 9.15436,-14.28673 23.6017,-36.89873 32.10524,-50.24887 l 15.46096,-24.27298 -6.0511,-6.37855 c -3.3281,-3.50821 -7.67733,-8.30302 -9.66493,-10.65513 l -3.61383,-4.27657 -60.26405,31.07559 c -33.14522,17.09157 -75.22614,38.75544 -93.51316,48.14193 -20.90124,10.72835 -33.11626,17.56126 -32.89137,18.39903 0.19677,0.73296 1.33441,4.83939 2.52808,9.12541 1.85147,6.64797 2.17031,10.69297 2.17031,27.53444 0,16.87865 -0.31608,20.87181 -2.17954,27.53443 -1.19873,4.28602 -2.45628,8.49412 -2.79452,9.35132 -0.47019,1.19155 9.10913,6.60701 40.68015,22.9977 36.33153,18.86217 41.43476,21.2351 42.45655,19.74167 0.63877,-0.93361 14.15864,-22.0366 30.04418,-46.89551 z m 429.90418,16.87739 c 16.35229,-8.46149 21.42164,-11.5394 20.95164,-12.72103 -0.3408,-0.85732 -1.597,-5.06552 -2.7912,-9.35154 -1.83006,-6.56762 -2.18043,-10.81479 -2.2285,-27.01492 -0.057,-19.53081 -0.10285,-19.18005 4.7437,-37.15717 0.216,-0.80121 -8.73144,-5.98121 -23.02499,-13.33007 -12.85802,-6.6108 -50.26333,-25.83239 -83.12282,-42.71463 -32.85948,-16.88225 -64.49308,-33.16732 -70.29691,-36.18905 l -10.55237,-5.49406 -3.42889,4.32111 c -1.88589,2.37661 -6.07355,7.12651 -9.3059,10.55532 l -5.87699,6.23421 9.76295,15.06601 c 5.36965,8.2863 16.71088,25.82003 25.20274,38.96383 17.54014,27.14879 63.62187,98.39762 70.22595,108.57916 2.40938,3.71455 7.93796,12.25221 12.28574,18.9726 l 7.90503,12.21887 18.98967,-9.8882 c 10.44432,-5.43851 28.69686,-14.91121 40.56115,-21.05044 z"
     id="path3" />
</svg>
